<svg width="32" height="39" viewBox="0 0 32 39" fill="none" xmlns="http://www.w3.org/2000/svg">
<path d="M20.5 0V3.5V11L27.7773 18.418V33.9844C27.7773 35.2148 27.4453 35.5664 26.1953 35.5664H5.78515C4.55468 35.5664 4.20311 35.2344 4.20311 33.9844V18.418L12 11V3.5V0H8H7V3.5H8V10L0.726562 17V33.9648C0.726562 37.1289 2.62108 39.0039 5.76561 39.0039H26.1758C29.3398 39.0039 31.2148 37.1094 31.2148 33.9648V17L24.5 10V3.5H25.5V0H24.5H20.5Z" fill="black"/>
<path d="M26.2148 30.918H17.5V27.7734H26.2148V24.5H22V21.3555H26.2148V19.5L18.5 12V3.5H13.5V12L5.78516 19.5V33.9844H26.2148V30.918Z" fill="#81E9BC"/>
</svg>
